<?xml version="1.0" encoding="iso-8859-1"?>
<!-- Generator: Adobe Illustrator 16.0.0, SVG Export Plug-In . SVG Version: 6.00 Build 0)  -->
<!DOCTYPE svg PUBLIC "-//W3C//DTD SVG 1.1//EN" "http://www.w3.org/Graphics/SVG/1.1/DTD/svg11.dtd">
<svg version="1.1" id="Capa_1" xmlns="http://www.w3.org/2000/svg" xmlns:xlink="http://www.w3.org/1999/xlink" x="0px" y="0px"
	 width="45.645px" height="45.645px" viewBox="0 0 45.645 45.645" style="enable-background:new 0 0 45.645 45.645;"
	 xml:space="preserve">
<g>
	<g>
		<path d="M38.917,13.659c0.069-0.396,0.113-0.802,0.113-1.216c0-3.864-3.133-6.997-6.997-6.997c-0.843,0-1.647,0.155-2.397,0.429
			C27.359,2.345,23.399,0,18.885,0C11.818,0,6.09,5.729,6.09,12.795c0,0.331,0.025,0.657,0.05,0.983
			c-3.42,0.858-5.956,3.953-5.956,7.638c0,4.35,3.525,7.885,7.874,7.885h1.861c0.763-0.5,1.676-0.811,2.645-0.811l0.276-0.004
			l0.053-5.549c0.011-3.063,2.512-5.553,5.574-5.553h0.014h0.005l8.88,0.024c1.488,0.004,2.887,0.586,3.938,1.643
			c1.051,1.057,1.625,2.457,1.621,3.966l-0.053,5.531l0.24,0.012c0.911,0.002,1.773,0.24,2.508,0.738h1.965
			c4.349,0,7.875-3.535,7.875-7.884C45.46,17.523,42.63,14.292,38.917,13.659z"/>
		<g>
			<path d="M21.469,45.135c0.327,0.329,0.84,0.51,1.353,0.51c0.459,0,1.027-0.181,1.352-0.508L34.32,34.919
				c0.498-0.501,0.646-1.253,0.371-1.903c-0.272-0.65-0.91-1.074-1.616-1.072l-3.311,0.025l0.049-8.822
				c-0.005-1.436-1.171-2.598-2.607-2.598h-8.771c-1.435,0-2.601,1.162-2.606,2.598l0.048,8.818l-3.31-0.023
				c-0.707-0.002-1.345,0.422-1.617,1.072c-0.273,0.651-0.127,1.404,0.372,1.904L21.469,45.135z"/>
		</g>
	</g>
</g>
<g>
</g>
<g>
</g>
<g>
</g>
<g>
</g>
<g>
</g>
<g>
</g>
<g>
</g>
<g>
</g>
<g>
</g>
<g>
</g>
<g>
</g>
<g>
</g>
<g>
</g>
<g>
</g>
<g>
</g>
</svg>
